<svg width="1178" height="327" viewBox="0 0 1178 327" fill="none" xmlns="http://www.w3.org/2000/svg">
<path d="M235.1 322H186.5L41.15 159.1V322H0.650001V0.699979H41.15V156.4L182.9 0.699979H228.8L89.3 156.85L235.1 322ZM510.124 322H469.624V36.25H367.924C365.824 52.75 363.574 70.15 361.174 88.45C358.774 106.45 356.224 124.3 353.524 142C351.124 159.7 348.724 176.35 346.324 191.95C343.924 207.55 341.524 221.2 339.124 232.9C335.224 253 330.424 270.1 324.724 284.2C319.024 298.3 311.374 308.95 301.774 316.15C292.474 323.35 280.174 326.95 264.874 326.95C259.774 326.95 254.524 326.35 249.124 325.15C244.024 324.25 239.524 323.05 235.624 321.55V287.8C238.924 289.3 242.674 290.65 246.874 291.85C251.074 292.75 255.574 293.2 260.374 293.2C269.374 293.2 276.424 289.6 281.524 282.4C286.924 274.9 291.124 265.75 294.124 254.95C297.124 243.85 299.674 232.9 301.774 222.1C303.574 213.4 305.674 201.85 308.074 187.45C310.474 172.75 313.024 155.65 315.724 136.15C318.724 116.65 321.724 95.5 324.724 72.7C328.024 49.6 331.174 25.6 334.174 0.699979H510.124V322ZM597.877 0.699979H635.677V177.1C635.677 184.6 635.527 192.85 635.227 201.85C635.227 210.55 635.077 219.25 634.777 227.95C634.477 236.65 634.027 244.45 633.427 251.35C633.127 257.95 632.827 263.05 632.527 266.65H634.327L811.177 0.699979H856.177V322H818.377V147.4C818.377 139.3 818.527 130.6 818.827 121.3C819.127 111.7 819.427 102.55 819.727 93.85C820.327 84.85 820.777 76.9 821.077 70C821.377 63.1 821.677 58 821.977 54.7H820.177L642.877 322H597.877V0.699979ZM1177.29 322H1128.69L983.338 159.1V322H942.838V0.699979H983.338V156.4L1125.09 0.699979H1170.99L1031.49 156.85L1177.29 322Z" fill="black"/>
</svg>
